<?xml version="1.0" encoding="UTF-8" standalone="no"?>
<!-- Created with Inkscape (http://www.inkscape.org/) -->

<svg
   xmlns:dc="http://purl.org/dc/elements/1.1/"
   xmlns:cc="http://creativecommons.org/ns#"
   xmlns:rdf="http://www.w3.org/1999/02/22-rdf-syntax-ns#"
   xmlns:svg="http://www.w3.org/2000/svg"
   xmlns="http://www.w3.org/2000/svg"
   xmlns:sodipodi="http://sodipodi.sourceforge.net/DTD/sodipodi-0.dtd"
   xmlns:inkscape="http://www.inkscape.org/namespaces/inkscape"
   width="744.09448819"
   height="1052.3622047"
   id="svg2"
   version="1.1"
   inkscape:version="0.48.2 r9819"
   enable-background="new"
   sodipodi:docname="Nowy dokument 1">
  <defs
     id="defs4">
    <filter
       inkscape:collect="always"
       id="filter3883">
      <feBlend
         inkscape:collect="always"
         mode="lighten"
         in2="BackgroundImage"
         id="feBlend3885" />
    </filter>
    <filter
       inkscape:collect="always"
       id="filter3903">
      <feBlend
         inkscape:collect="always"
         mode="screen"
         in2="BackgroundImage"
         id="feBlend3905" />
    </filter>
  </defs>
  <sodipodi:namedview
     id="base"
     pagecolor="#ffffff"
     bordercolor="#666666"
     borderopacity="1.0"
     inkscape:pageopacity="0.0"
     inkscape:pageshadow="2"
     inkscape:zoom="0.175"
     inkscape:cx="188.95918"
     inkscape:cy="524.50495"
     inkscape:document-units="px"
     inkscape:current-layer="layer5"
     showgrid="false"
     inkscape:window-width="1280"
     inkscape:window-height="750"
     inkscape:window-x="-8"
     inkscape:window-y="-8"
     inkscape:window-maximized="1" />
  <metadata
     id="metadata7">
    <rdf:RDF>
      <cc:Work
         rdf:about="">
        <dc:format>image/svg+xml</dc:format>
        <dc:type
           rdf:resource="http://purl.org/dc/dcmitype/StillImage" />
        <dc:title></dc:title>
      </cc:Work>
    </rdf:RDF>
  </metadata>
  <g
     inkscape:label="Layer 1"
     inkscape:groupmode="layer"
     id="layer1"
     style="display:inline" />
  <g
     inkscape:groupmode="layer"
     id="layer4"
     inkscape:label="3"
     style="display:inline;filter:url(#filter3883)" />
  <g
     inkscape:groupmode="layer"
     id="layer3"
     inkscape:label="Warstwa2"
     style="display:inline;filter:url(#filter3903)" />
  <g
     inkscape:groupmode="layer"
     id="layer6"
     inkscape:label="shades"
     style="opacity:0.5" />
  <g
     inkscape:groupmode="layer"
     id="layer5"
     inkscape:label="Warstwa"
     style="display:inline">
    <g
       id="g4240"
       transform="translate(28.571429,-91.428571)">
      <g
         transform="matrix(1,0,0,1.0508475,8.5714285,39.41984)"
         id="g3757"
         style="display:inline">
        <path
           sodipodi:type="arc"
           style="fill:#008000"
           id="path3753"
           sodipodi:cx="362.85715"
           sodipodi:cy="479.50504"
           sodipodi:rx="237.14285"
           sodipodi:ry="84.285713"
           d="m 600,479.50504 c 0,46.54971 -106.17247,84.28571 -237.14285,84.28571 -130.97038,0 -237.14286,-37.736 -237.14286,-84.28571 0,-46.54972 106.17248,-84.28572 237.14286,-84.28572 130.97038,0 237.14285,37.736 237.14285,84.28572 z"
           transform="translate(-31.428571,234.28571)" />
        <path
           sodipodi:type="arc"
           style="fill:#62d400;fill-opacity:1"
           id="path3755"
           sodipodi:cx="318.57144"
           sodipodi:cy="722.36218"
           sodipodi:rx="167.14285"
           sodipodi:ry="35.714287"
           d="m 485.71429,722.36218 c 0,19.72446 -74.8324,35.71429 -167.14285,35.71429 -92.31045,0 -167.14285,-15.98983 -167.14285,-35.71429 0,-19.72445 74.8324,-35.71428 167.14285,-35.71428 92.31045,0 167.14285,15.98983 167.14285,35.71428 z"
           transform="matrix(1.3247863,0,0,1.96,-92.039079,-702.0391)" />
      </g>
      <path
         inkscape:connector-curvature="0"
         id="path3753-7-9"
         d="M 349.03125,474.375 C 300.9028,474.26303 253.69519,493.43568 218.5,526.0625 c -45.71701,41.97609 -74.3006,99.09524 -93.15625,157.5625 -9.83669,32.10779 -18.20607,65.12298 -19.78125,98.8125 0.60936,18.78462 16.83856,31.66999 31.50531,40.68455 36.64326,21.19186 79.14203,30.09871 120.84382,36.11483 72.08116,9.04344 146.24825,7.34374 217.15087,-8.92438 31.29234,-7.97669 63.6755,-17.71188 88.51079,-39.21519 10.46616,-8.9394 17.4606,-22.49285 14.67671,-36.47231 C 573.04181,733.23646 560.00966,692.89047 544.58843,654.10639 522.60616,601.10931 493.63916,549.2108 449.4375,511.8125 421.55085,488.28708 386.02494,473.24646 349.03125,474.375 z"
         style="fill:#008000;display:inline;filter:url(#filter3883)" />
      <path
         inkscape:connector-curvature="0"
         id="path3755-4-0"
         d="m 330.53125,492.9375 c -43.28962,0.80232 -80.64742,28.59208 -107.875,60.46875 -40.53978,48.03075 -67.55902,106.24273 -87.0625,165.53125 -6.8747,23.0977 -14.48436,46.31727 -15,70.53125 1.73941,16.05477 16.88388,25.86364 29.6875,33.125 37.42156,19.24391 79.66461,26.43297 121.09375,31.25 79.29306,8.11891 161.4553,3.94555 236.59375,-23.875 21.01861,-8.53344 43.28771,-18.23228 57.59375,-36.5625 7.72462,-9.2288 5.16626,-21.73958 2.79047,-32.44655 C 556.26939,708.66621 534.58306,658.53249 506.5625,612.78125 477.53734,566.60352 438.92966,523.12605 387,503.0625 c -17.94822,-6.74725 -37.16593,-10.42847 -56.46875,-10.125 z"
         style="fill:#62d400;fill-opacity:1;display:inline;filter:url(#filter3903)" />
      <path
         inkscape:connector-curvature="0"
         id="path3948-8"
         d="m 289.875,531.5 c -8.77978,2.05882 -15.36431,9.49476 -23.375,13.5 -32.3121,34.01895 -65.28685,68.23611 -88.5821,109.34558 -17.30417,30.82407 -34.12664,63.57148 -37.4804,99.27942 -1.0633,14.15018 1.48211,28.90959 7.40625,41.5625 5.77196,5.9415 15.48806,3.67538 23.0625,4.5 16.77701,-0.72355 33.44123,1.49269 50.15625,2.125 8.39752,0.74736 15.42463,-5.69983 17.21875,-13.53125 5.51523,-17.80214 6.3082,-37.86303 -2.52039,-54.80106 -6.76265,-12.97616 -11.67784,-28.08156 -7.07336,-42.66769 5.89588,-19.63339 17.67322,-37.182 30.125,-53.25 6.90319,-8.46124 17.82528,-13.56199 21.40625,-24.59375 8.90455,-22.11338 16.55718,-45.43706 16.6875,-69.5 -0.36783,-4.19607 -0.89832,-12.6009 -7.03125,-11.96875 z"
         style="opacity:0.5;fill:#b3b3b3;stroke:#000000;stroke-width:1px;stroke-linecap:butt;stroke-linejoin:miter;stroke-opacity:1;display:inline;filter:url(#filter3903)" />
      <path
         inkscape:connector-curvature="0"
         id="path3952-2"
         d="m 340.75,503 c -6.69436,0.49377 -14.00981,2.0065 -19.5,5.3125 -1.18608,11.33175 -0.29697,26.83562 11.6875,31.9375 2.27523,0.71386 5.81741,2.52269 6.17978,-1.51774 5.16339,-9.97688 12.16435,-20.49418 12.07022,-31.98226 -0.4184,-4.6493 -7.22832,-3.42957 -10.4375,-3.75 z"
         style="opacity:0.5;fill:#b3b3b3;stroke:#000000;stroke-width:0.9309122px;stroke-linecap:butt;stroke-linejoin:miter;stroke-opacity:1;display:inline;filter:url(#filter3903)" />
      <path
         inkscape:connector-curvature="0"
         id="path3908"
         d="m 379.21429,685.85714 c -9.40829,1.97024 -12.85687,13.16224 -15.14447,21.15871 -3.61009,17.44812 -3.34837,37.85352 7.51947,52.87254 3.3887,5.15602 11.19533,6.47187 15.34375,1.59375 11.17979,-12.71279 12.03516,-31.33527 10.32041,-47.39519 -1.71753,-9.94615 -4.43272,-22.43312 -14.03916,-27.60481 -1.22766,-0.55585 -2.64981,-0.79696 -4,-0.625 z"
         style="fill:#000000;fill-opacity:1" />
      <path
         inkscape:connector-curvature="0"
         id="path3908-4"
         d="m 476.35714,675.85714 c -9.40829,1.97024 -12.85687,13.16224 -15.14447,21.15871 -3.61009,17.44812 -3.34837,37.85352 7.51947,52.87254 3.3887,5.15602 11.19533,6.47187 15.34375,1.59375 11.17979,-12.71279 12.03516,-31.33527 10.32041,-47.39519 -1.71753,-9.94615 -4.43272,-22.43312 -14.03916,-27.60481 -1.22766,-0.55585 -2.64981,-0.79696 -4,-0.625 z"
         style="fill:#000000;fill-opacity:1" />
      <path
         inkscape:connector-curvature="0"
         id="path3928"
         d="m 376.80994,691.05562 c -5.16766,1.28614 -7.22524,12.11605 -7.36608,20.19047 -0.13114,8.40708 1.46988,19.17349 6.44197,22.16667 4.57811,1.79593 7.64723,-6.70975 8.47768,-13.57143 1.28181,-9.7791 0.20235,-23.34831 -5.39732,-28.21428 -0.68531,-0.4341 -1.42848,-0.67397 -2.15625,-0.57143 z"
         style="fill:#ffffff;fill-opacity:1" />
      <path
         inkscape:connector-curvature="0"
         id="path3928-8"
         d="m 471.09567,676.76991 c -5.16766,1.28614 -7.22524,12.11605 -7.36608,20.19047 -0.13114,8.40708 1.46988,19.17349 6.44197,22.16667 4.57811,1.79593 7.64723,-6.70975 8.47768,-13.57143 1.28181,-9.7791 0.20235,-23.34831 -5.39732,-28.21428 -0.68531,-0.4341 -1.42848,-0.67397 -2.15625,-0.57143 z"
         style="fill:#ffffff;fill-opacity:1" />
    </g>
  </g>
</svg>
